<svg width="636" height="300" viewBox="0 0 636 300" fill="none" xmlns="http://www.w3.org/2000/svg">
<g clip-path="url(#clip0_2596_5507)">
<path d="M548.761 257.215L536.482 144.669L525.58 151.326L544.729 257.167L548.761 257.215Z" fill="#C8C6C4"/>
<path d="M100.278 266.704L95.6497 266.646L111.739 150.227L125.547 149.341L100.278 266.704Z" fill="#C8C6C4"/>
<path d="M132.88 248.15L154.117 147.578L141.963 149.023L128.857 248.102L132.88 248.15Z" fill="#C8C6C4"/>
<path d="M520.951 275.644L525.58 275.701L512.252 153.618L497.992 152.385L520.951 275.644Z" fill="#C8C6C4"/>
<path d="M519.893 155.699L553.736 136.5L554.448 125.71L520.018 145.324L519.893 155.699Z" fill="#848484"/>
<path d="M520.018 145.324L554.448 125.71L149.103 125.691L91.7429 142.318L92.6186 143.099L520.018 145.324Z" fill="#B2B2B2"/>
<path d="M91.5312 153.002L519.893 155.699L520.018 145.324L91.7333 142.299L91.5312 153.002Z" fill="#848484"/>
<path d="M134.371 283.244L128.809 282.349L147.15 207.806C148.343 202.941 152.289 199.107 157.186 198.038L183.841 192.219C186.516 191.641 189.249 192.142 191.53 193.635C193.81 195.128 195.36 197.421 195.898 200.089L210.294 271.877L204.973 271.761L190.943 201.091C190.673 199.762 189.903 198.625 188.768 197.883C187.623 197.132 186.266 196.882 184.929 197.18L158.274 202.999C155.243 203.663 152.818 206.024 152.077 209.029L134.371 283.244Z" fill="#CCCAC7"/>
<path d="M345.915 133.957L345.963 135.247C345.963 135.247 345.704 135.835 345.405 135.874L312.939 140.199C312.169 140.295 310.648 140.324 309.869 140.276L242.713 136.875C242.559 136.866 242.443 136.779 242.453 136.673L242.559 134.852C242.568 134.737 242.693 134.65 242.857 134.65L334.291 134.746L345.915 133.957Z" fill="#9C9894"/>
<path d="M345.8 133.976L312.611 138.031C311.534 138.147 310.437 138.166 309.349 138.089L242.77 134.65L274.111 130.575L345.8 133.976Z" fill="#D5D3D0"/>
<path d="M351.208 71.9565L348.215 71.9662C348.62 72.1107 348.908 72.5345 348.87 73.0547L344.713 133.003C344.674 133.61 344.212 134.072 343.683 134.043L345.54 134.101C346.07 134.13 348.196 132.598 348.196 130.691L352.141 73.1125C352.19 72.4767 351.766 71.9565 351.208 71.9565Z" fill="#B3AFAB"/>
<path d="M276.748 75.7618L349.023 73.8447L345.656 132.974L273.024 128.88L276.748 75.7618Z" fill="#D8E8FB"/>
<path d="M346.339 96.2325L309.869 96.4348L310.36 86.7341L346.984 86.2139L346.339 96.2325Z" fill="#3E8EED"/>
<path d="M319.607 124.343L310.822 123.957L311.351 114.709L320.194 114.883L319.607 124.343Z" fill="#3E8EED"/>
<path d="M330.144 124.699L321.253 124.304L321.792 115.018L330.731 115.191L330.144 124.699Z" fill="#28C2D1"/>
<path d="M340.479 125.152L331.664 124.738L332.136 115.21L341.171 115.384L340.479 125.152Z" fill="#F7B548"/>
<path d="M316.403 101.926L316.48 99.6235L339.401 99.8644L339.314 102.196L316.403 101.926Z" fill="#B3AFAB"/>
<path d="M316.172 106.54L316.249 104.238L339.228 104.498L339.141 106.829L316.172 106.54Z" fill="#B3AFAB"/>
<path d="M315.931 111.155L316.018 108.853L333.416 109.19L333.329 111.511L315.931 111.155Z" fill="#B3AFAB"/>
<path d="M314.613 82.9962L314.68 80.6939L330.519 80.376L330.452 82.6976L314.613 82.9962Z" fill="#B3AFAB"/>
<path d="M312.159 74.5962L278.653 75.8004L274.92 128.967L308.387 130.527L312.159 74.5962Z" fill="#84817D"/>
<path d="M283.744 83.1119L283.792 80.8384L297.735 80.6265L297.687 82.9096L283.744 83.1119Z" fill="#B3AFAB"/>
<path d="M287.891 88.1888L287.949 85.9154L301.921 85.7612L301.863 88.054L287.891 88.1888Z" fill="#B3AFAB"/>
<path d="M287.631 93.3523L287.698 91.0692L304.259 91.021L304.192 93.3137L287.631 93.3523Z" fill="#B3AFAB"/>
<path d="M282.781 98.4772L282.868 96.2134L297.687 96.3771L297.6 98.6699L282.781 98.4772Z" fill="#B3AFAB"/>
<path d="M287.198 103.66L287.275 101.386L303.23 101.569L303.153 103.862L287.198 103.66Z" fill="#B3AFAB"/>
<path d="M291.182 108.9L291.259 106.617L305.577 106.781L305.5 109.074L291.182 108.9Z" fill="#B3AFAB"/>
<path d="M290.913 114.083L291.009 111.8L300.285 112.031L300.189 114.315L290.913 114.083Z" fill="#B3AFAB"/>
<path d="M286.409 119.122L286.505 116.848L304.538 117.407L304.442 119.7L286.409 119.122Z" fill="#B3AFAB"/>
<path d="M290.393 124.429L290.489 122.156L301.767 122.551L301.671 124.843L290.393 124.429Z" fill="#B3AFAB"/>
<path d="M349.476 71.9277L276.661 73.9026C276.171 73.9026 275.757 74.3553 275.718 74.9333L271.966 129.477C271.927 130.075 272.312 130.595 272.822 130.614L345.223 134.111C345.752 134.14 346.214 133.677 346.252 133.07L350.419 73.0741C350.457 72.4479 350.024 71.9277 349.476 71.9277ZM342.346 129.419C342.307 129.949 341.903 130.354 341.441 130.335L276.228 127.3C275.776 127.281 275.439 126.828 275.478 126.298L278.788 78.2279C278.826 77.7174 279.192 77.3224 279.625 77.3224L345.184 75.7329C345.675 75.7329 346.041 76.1953 346.002 76.7444L342.346 129.419Z" fill="#605D5A"/>
<path d="M289.469 80.752L283.792 80.8387L283.744 83.1121L289.363 83.0254L289.469 80.752Z" fill="#F7B548"/>
<path d="M293.183 91.0596L287.698 91.0692L287.631 93.3523L293.068 93.3427L293.183 91.0596Z" fill="#F7B548"/>
<path d="M292.241 117.022L286.505 116.848L286.409 119.122L292.125 119.305L292.241 117.022Z" fill="#F7B548"/>
<path d="M209.235 240.781L199.295 237.736C199.055 237.659 198.833 237.573 198.612 237.457L173.757 224.654C172.121 223.807 171.707 221.649 172.929 220.262L205.56 183.25L204.963 190.138L209.235 240.781Z" fill="#522CD5"/>
<path d="M172.256 222.362C172.333 223.296 172.843 224.182 173.766 224.654L198.622 237.457C198.843 237.573 199.074 237.669 199.305 237.736L209.245 240.78L209.842 227.005L172.256 222.362Z" fill="url(#paint0_linear_2596_5507)"/>
<path d="M208.437 184.917L181.435 221.726C180.589 222.891 180.935 224.529 182.176 225.252L208.995 240.626C209.697 241.031 210.592 240.848 211.083 240.193L215.038 234.895C215.442 234.355 215.634 233.623 215.326 233.035C210.255 223.469 202.519 210.387 215.702 194.646C228.885 178.886 208.437 184.917 208.437 184.917Z" fill="url(#paint1_linear_2596_5507)"/>
<path d="M249.064 243.189L238.7 242.486C238.45 242.466 238.209 242.428 237.969 242.37L210.862 235.53C209.072 235.078 208.187 233.064 209.062 231.436L232.474 187.98L233.446 194.82L249.064 243.189Z" fill="#522CD5"/>
<path d="M208.87 233.633C209.159 234.519 209.861 235.27 210.862 235.521L237.969 242.36C238.209 242.418 238.45 242.457 238.7 242.476L249.064 243.179L246.523 229.625L208.87 233.633Z" fill="url(#paint2_linear_2596_5507)"/>
<path d="M235.64 188.953L217.674 230.926C217.107 232.245 217.819 233.777 219.195 234.191L248.804 243.083C249.583 243.314 250.411 242.929 250.738 242.187L253.384 236.128C253.654 235.511 253.682 234.76 253.24 234.249C246.138 226.08 235.64 215.088 244.916 196.766C254.183 178.443 235.64 188.953 235.64 188.953Z" fill="url(#paint3_linear_2596_5507)"/>
<path d="M191.472 293.263L196.351 219.491C196.322 213.865 200.084 208.827 205.492 207.237L244.56 196.226C247.254 195.437 250.093 195.745 252.556 197.093C255.02 198.442 256.81 200.667 257.599 203.365L273.005 275.056L267.356 274.94L252.73 204.791C252.326 203.403 251.402 202.247 250.122 201.554C248.842 200.85 247.37 200.696 245.975 201.101L206.907 212.112C203.654 213.066 201.393 216.09 201.412 219.462L196.505 293.909L191.472 293.263Z" fill="#CCCAC7"/>
<path d="M214.047 205.079L252.72 194.579C255.299 193.857 257.022 191.429 256.858 188.76L256.319 180.196C256.184 178.019 254.472 176.276 252.297 176.093L191.703 167.105L142.175 178.453C142.175 178.453 147.439 197.113 154.868 197.748C159.111 198.114 195.263 203.316 203.183 204.347C208.456 205.031 214.047 205.079 214.047 205.079Z" fill="#179BB8"/>
<path d="M251.027 121.992C253.009 106.993 249.141 95.6928 249.141 95.6928L252.557 95.269L252.634 95.1919C244.445 69.1337 218.618 51.813 190.568 55.281C158.967 59.1921 136.517 88.0054 140.424 119.641C144.331 151.277 173.112 173.752 204.713 169.841C229.645 166.758 248.881 148.156 253.971 124.911C254.087 123.957 253.856 122.262 251.027 121.992Z" fill="url(#paint4_radial_2596_5507)"/>
<path d="M251.027 121.992C252.99 107.176 249.237 95.982 249.15 95.7026L233.148 97.5522C233.148 97.5522 229.356 97.6389 229.78 101.059C230.203 104.479 231.541 114.122 232.859 124.815C233.128 127.011 250.536 124.159 251.027 121.992Z" fill="url(#paint5_radial_2596_5507)"/>
<path d="M253.827 125.614C253.827 125.614 255.039 122.368 251.027 121.992C251.027 121.973 236.025 123.678 236.025 123.678C234.668 123.842 232.82 123.254 232.503 121.954C232.618 122.898 232.744 123.851 232.859 124.815C233.109 126.809 234.716 127.676 236.063 127.695C236.198 127.695 236.333 127.695 236.467 127.676L253.827 125.614Z" fill="#512BD4"/>
<path d="M250.555 135.479L151.885 147.694C154.569 151.19 157.629 154.35 161.007 157.125L244.002 146.855C246.61 143.33 248.813 139.515 250.555 135.479Z" fill="#D8CFF7"/>
<path d="M241.741 149.745C246.08 144.572 249.516 138.658 251.844 132.242L239.758 133.735L241.741 149.745Z" fill="#512BD4"/>
<path d="M191.077 53.3735L180.021 54.7511L180.175 43.1911L188.114 42.2085L191.077 53.3735Z" fill="#8A6FE8"/>
<path d="M196.168 59.7991C196.668 59.7413 197.015 59.2596 196.899 58.7683C195.667 53.5856 190.712 50.0501 185.304 50.7245C179.896 51.3988 175.96 56.0324 176.018 61.3597C176.028 61.8606 176.48 62.2459 176.971 62.1881L196.168 59.7991Z" fill="url(#paint6_radial_2596_5507)"/>
<path d="M246.911 116.95C249.391 116.7 251.061 113.116 250.642 108.945C250.223 104.773 247.873 101.594 245.393 101.844C242.913 102.093 241.242 105.678 241.661 109.849C242.081 114.02 244.431 117.2 246.911 116.95Z" fill="#512BD4"/>
<path d="M245.628 105.413C244.185 107.244 244.493 109.893 246.312 111.347C247.562 112.34 249.198 112.503 250.574 111.925C250.709 111.001 250.738 109.989 250.632 108.949C250.43 106.906 249.756 105.095 248.833 103.824C247.62 103.843 246.437 104.392 245.628 105.413Z" fill="#8065E0"/>
<path d="M183.043 45.1372C187.485 45.1372 191.087 41.5315 191.087 37.0837C191.087 32.6359 187.485 29.0303 183.043 29.0303C178.6 29.0303 174.998 32.6359 174.998 37.0837C174.998 41.5315 178.6 45.1372 183.043 45.1372Z" fill="#D8CFF7"/>
<path d="M243.02 156.711C229.703 156.711 219.108 147.694 206.339 121.963L217.001 116.655C225.363 133.494 232.137 141.981 238.95 144.168C245.06 146.133 252.393 143.744 265.537 138.003L270.291 148.927C259.6 153.599 250.844 156.711 243.02 156.711Z" fill="url(#paint7_linear_2596_5507)"/>
<path d="M210.708 127.579C216.554 127.579 221.293 122.835 221.293 116.982C221.293 111.13 216.554 106.386 210.708 106.386C204.862 106.386 200.123 111.13 200.123 116.982C200.123 122.835 204.862 127.579 210.708 127.579Z" fill="url(#paint8_radial_2596_5507)"/>
<path d="M270.965 142.704L279.375 136.741C281.607 135.142 281.963 132.068 280.173 129.891C278.384 127.714 275.131 127.242 272.899 128.841L264.277 134.958L270.965 142.704Z" fill="#8A6FE8"/>
<path d="M274.64 152.019L284.35 147.308C286.929 146.037 288.035 143.06 286.813 140.671C285.591 138.272 282.521 137.367 279.943 138.638L269.993 143.465L274.64 152.019Z" fill="#8A6FE8"/>
<path d="M275.122 144.582L284.388 139.053C286.842 137.56 287.679 134.506 286.255 132.232C284.831 129.949 281.675 129.313 279.221 130.807L269.723 136.471L275.122 144.582Z" fill="#8A6FE8"/>
<path d="M268.713 141.451L270.56 131.298C271.032 128.591 269.146 126.144 266.346 125.845C263.545 125.537 260.89 127.483 260.418 130.19L258.522 140.594L268.713 141.451Z" fill="#8A6FE8"/>
<path d="M258.619 140.103C261.371 134.959 267.905 132.724 273.207 135.113C278.509 137.502 280.587 143.609 277.835 148.754C275.083 153.898 268.549 156.133 263.247 153.744C257.945 151.355 255.867 145.247 258.619 140.103Z" fill="url(#paint9_radial_2596_5507)"/>
<path d="M241.394 174.416L251.739 176.006C252.027 173.646 251.796 171.517 250.998 169.677C249.487 166.209 246.225 164.118 242.001 163.935C232.917 163.55 216.27 165.419 203.905 167.057L205.281 177.47C222.043 175.235 234.851 174.156 241.394 174.416Z" fill="url(#paint10_linear_2596_5507)"/>
<path d="M227.095 201.737L213.922 205.195C197.755 209.973 184.399 206.052 179.521 205.07C174.68 204.097 162.691 201.611 151.702 199.694C146.092 198.721 142.425 187.72 144.138 192.614C145.851 197.498 126.519 113.091 127.096 107.86C127.674 102.629 131.552 98.6214 149.017 99.787C166.482 100.953 172.794 101.232 190.336 130.729C206.608 158.088 221.725 184.454 229.501 197.093C231.454 200.272 230.318 200.783 227.095 201.737Z" fill="#22B5D6"/>
<path d="M360.773 46.1777L468.585 41.1105C470.991 40.9949 472.944 42.8734 472.944 45.301V113.717V114.536V122.483C472.944 124.564 471.26 126.24 469.21 126.211L360.763 125.788C359.012 125.768 357.588 124.198 357.588 122.281V114.979L357.068 50.3874C357.059 48.1621 358.714 46.2836 360.773 46.1777Z" fill="#B3AFAB"/>
<path d="M426.909 118.312L429.401 130.44C429.642 133.061 429.469 134.082 426.515 135.507L418.075 139.149C415.458 140.401 412.581 140.372 409.444 140.372L383.213 140.411C380.653 140.469 379.71 138.619 383.078 138.137L401.64 134.428C404.094 134.043 404.69 132.694 404.238 130.421L401.688 117.416L426.909 118.312Z" fill="#848484"/>
<path d="M471.414 45.3299C471.414 42.9023 469.451 41.0238 467.045 41.1298L359.07 46.2065C357.01 46.3029 355.355 48.191 355.355 50.4259L355.875 114.314H355.865V122.377C355.865 124.304 357.289 125.865 359.05 125.884L467.671 126.308C469.73 126.337 471.414 124.66 471.414 122.58V114.671C471.414 114.651 471.424 114.632 471.424 114.613V45.3299H471.414Z" fill="#625F5B"/>
<path d="M360.994 120.566L465.958 119.699V47.4302L360.484 51.9289L360.994 120.566Z" fill="#3E8EED"/>
<path d="M487.83 116.819C487.83 116.819 483.741 101.328 472.03 96.0685C485.001 94.0358 489.87 111.289 489.87 111.289C489.87 111.289 486.608 90.8087 489.091 78.3335C489.812 85.1346 493.238 99.0163 493.238 99.0163C493.238 99.0163 493.815 88.776 500.445 80.9923C497.02 91.5119 498.579 101.184 498.579 101.184C498.579 101.184 503.505 91.5119 515.043 91.3674C506.517 95.9914 500.205 105.673 500.205 105.673C500.205 105.673 506.036 99.0163 517.747 102.59C506.094 104.132 497.366 114.709 497.366 114.709L487.83 116.819Z" fill="#A2AD6D"/>
<path d="M488.379 139.371H500.407C505.036 135.71 508.278 127.974 508.461 118.919H480.315C480.498 127.974 483.75 135.7 488.379 139.371Z" fill="#E3646A"/>
<path d="M489.63 116.27C489.63 116.27 482.72 109.96 475.215 107.157C485.492 103.929 492.815 111.154 492.815 111.154C492.815 111.154 508.009 104.421 515.341 108.631C507.653 107.86 497.741 116.27 497.741 116.27H489.63Z" fill="#889643"/>
<path d="M489.63 115.287C489.63 115.287 487.763 96.6366 478.881 84.7876C491.496 91.3094 494.354 114.94 494.354 114.94L489.63 115.287Z" fill="#889643"/>
<path d="M503.871 86.3291C499.666 98.2455 497.982 114.651 497.982 114.651L492.093 115.287C492.093 115.287 497.203 93.477 503.871 86.3291Z" fill="#889643"/>
<path d="M495.942 117.454C495.49 109.536 494.354 95.6445 493.844 80.9922C490.957 93.6119 491.804 117.946 491.804 117.946L495.942 117.454Z" fill="#889643"/>
<path d="M511.155 113.707H477.543V119.93H511.155V113.707Z" fill="#EE8F94"/>
<path d="M378.286 51.1675L360.474 51.9285L360.994 120.566L378.286 120.422V51.1675Z" fill="#0064DA"/>
<path d="M360.474 51.4857L465.948 46.958V53.7013L360.474 58.0556V51.4857Z" fill="#D8E8FB"/>
<path d="M374.552 66.7061L364.295 66.8795V65.3189L374.552 65.1455V66.7061Z" fill="#3E8EED"/>
<path d="M374.552 71.7155L364.295 71.8889V70.338L374.552 70.1646V71.7155Z" fill="#3E8EED"/>
<path d="M374.552 76.7346L364.295 76.908V75.3474L374.552 75.1836V76.7346Z" fill="#3E8EED"/>
<path d="M374.552 81.7535L364.295 81.9172V80.3663L374.552 80.1929V81.7535Z" fill="#3E8EED"/>
<path d="M374.552 86.7629L364.295 86.9363V85.3757L374.552 85.2119V86.7629Z" fill="#3E8EED"/>
<path d="M374.552 91.7818L364.295 91.9456V90.3946L374.552 90.2212V91.7818Z" fill="#3E8EED"/>
<path d="M374.552 96.7912L364.295 96.9646V95.4136L374.552 95.2402V96.7912Z" fill="#3E8EED"/>
<path d="M456.412 74.1241L389.313 76.3302V74.7021L456.412 72.4961V74.1241Z" fill="#B0D1F7"/>
<path d="M408.068 63.5273L384.069 64.4329V66.0609L408.068 65.165V63.5273Z" fill="#B0D1F7"/>
<path d="M443.287 67.6694L389.313 69.5672V71.1952L443.287 69.2975V67.6694Z" fill="#B0D1F7"/>
<path d="M420.231 79.0464L394.558 79.8363V81.4644L420.231 80.6744V79.0464Z" fill="#B0D1F7"/>
<path d="M440.92 83.6611L394.558 84.9713V86.5993L440.92 85.2892V83.6611Z" fill="#B0D1F7"/>
<path d="M450.398 88.7954L399.802 90.0959V91.7239L450.398 90.4234V88.7954Z" fill="#B0D1F7"/>
<path d="M414.544 94.5176L384.069 95.2304V96.8585L414.544 96.1456V94.5176Z" fill="#B0D1F7"/>
<path d="M452.448 99.1514L394.558 100.365V101.993L452.448 100.779V99.1514Z" fill="#B0D1F7"/>
<path d="M429.228 104.951L399.802 105.5V107.128L429.228 106.579V104.951Z" fill="#B0D1F7"/>
<path d="M439.659 109.729L384.069 110.634V112.262L439.659 111.357V109.729Z" fill="#B0D1F7"/>
<path d="M393.74 64.0669L384.069 64.433V66.061L393.74 65.7046V64.0669Z" fill="white"/>
<path d="M408.222 74.0757L389.313 74.7019V76.3299L408.222 75.7037V74.0757Z" fill="white"/>
<path d="M392.932 95.0283L384.069 95.2306V96.8587L392.932 96.6564V95.0283Z" fill="white"/>
<path d="M407.087 100.105L394.558 100.365V101.993L407.087 101.733V100.105Z" fill="white"/>
<path d="M399.436 110.384L384.069 110.634V112.262L399.436 112.012V110.384Z" fill="white"/>
<path d="M152.403 76.4753C145.362 58.2933 137.676 37.3635 167.326 26.7255C196.976 16.0875 205.039 37.6875 211.708 53.9421C214.441 60.5832 153.998 80.569 152.403 76.4753Z" fill="#D600AA"/>
<path d="M161.512 69.2745C163.4 69.2087 165.225 68.5846 166.758 67.4812C168.291 66.3778 169.462 64.8446 170.124 63.0755C170.786 61.3064 170.908 59.3809 170.475 57.5424C170.042 55.7039 169.074 54.035 167.693 52.7468C166.311 51.4586 164.579 50.609 162.715 50.3053C160.851 50.0016 158.938 50.2575 157.22 51.0406C155.501 51.8238 154.053 53.099 153.059 54.705C152.065 56.3111 151.57 58.1758 151.635 60.0634C151.679 61.3168 151.969 62.5493 152.489 63.6905C153.009 64.8318 153.749 65.8595 154.666 66.7148C155.583 67.5702 156.66 68.2365 157.834 68.6757C159.009 69.1149 160.259 69.3184 161.512 69.2745Z" fill="#FF6759"/>
<path d="M183.432 56.3802C184.989 56.3259 186.495 55.811 187.76 54.9007C189.025 53.9903 189.991 52.7254 190.537 51.2658C191.083 49.8063 191.184 48.2176 190.826 46.7008C190.469 45.184 189.671 43.8071 188.531 42.7443C187.391 41.6815 185.962 40.9805 184.424 40.73C182.886 40.4794 181.308 40.6905 179.89 41.3366C178.472 41.9828 177.278 43.0349 176.458 44.3599C175.638 45.6849 175.229 47.2234 175.283 48.7807C175.319 49.8149 175.558 50.8319 175.987 51.7737C176.416 52.7154 177.026 53.5634 177.783 54.2692C178.539 54.9749 179.428 55.5247 180.397 55.8869C181.366 56.2491 182.398 56.4167 183.432 56.3802Z" fill="url(#paint11_linear_2596_5507)"/>
<path d="M180.381 24.5371C180.313 24.332 180.221 24.1278 180.14 23.9231C176.388 24.115 172.147 24.9828 167.338 26.7126C163.819 27.9702 160.829 29.3802 158.307 30.9082C158.685 32.6251 159.452 34.2322 160.549 35.6054C161.646 36.9785 163.045 38.0809 164.636 38.8274C166.695 39.7979 168.994 40.1366 171.245 39.8006C173.495 39.4646 175.596 38.4691 177.281 36.9398C178.966 35.4105 180.159 33.4161 180.711 31.2085C181.263 29.001 181.148 26.6794 180.381 24.5371Z" fill="url(#paint12_linear_2596_5507)"/>
<path d="M146.24 47.7673C147.546 48.0743 148.913 47.9927 150.173 47.5325C151.332 47.116 152.36 46.4007 153.154 45.4591C153.947 44.5175 154.478 43.3829 154.692 42.1703C154.906 40.9577 154.796 39.71 154.373 38.5536C153.95 37.3972 153.229 36.373 152.283 35.5848C148.69 39.2736 146.869 43.4009 146.24 47.7673Z" fill="#FF4966"/>
<path d="M188.246 24.7024C187.686 25.9417 187.501 27.3176 187.713 28.6609C187.924 30.0042 188.524 31.2564 189.437 32.2637C190.053 32.9445 190.798 33.4953 191.629 33.8836C192.462 34.2696 193.36 34.495 194.276 34.5479C195.192 34.5921 196.108 34.4565 196.972 34.1489C198.126 33.7399 199.15 33.0301 199.939 32.0928C196.853 28.6492 193.074 25.9741 188.246 24.7024Z" fill="#FF625B"/>
<path d="M199.293 50.6894C200.002 52.6538 201.24 54.384 202.87 55.6883C204.501 56.9927 206.461 57.8205 208.533 58.08C210.917 56.4592 212.16 55.0124 211.708 53.9299C209.493 48.5277 207.124 42.5328 203.855 37.326C201.69 38.704 200.058 40.7782 199.229 43.2072C198.4 45.6361 198.423 48.275 199.293 50.6894Z" fill="#FF615C"/>
<path d="M140.254 78.4119C140.254 78.4119 141.997 95.1312 187.991 77.248C233.841 59.4185 222.083 46.3068 222.083 46.3068C222.083 46.3068 209.314 57.0397 181.894 66.88C154.474 76.7202 140.254 78.4119 140.254 78.4119Z" fill="#FFD590"/>
<path d="M285.226 262.835C282.186 262.506 279.186 261.88 276.268 260.964C262.331 256.667 242.513 256.227 237.078 257.623C236.874 257.675 236.659 257.643 236.479 257.535C236.299 257.426 236.17 257.25 236.119 257.044C236.068 256.839 236.099 256.621 236.207 256.439C236.315 256.257 236.489 256.126 236.693 256.074C239.751 255.292 246.466 255.1 253.809 255.591C258.791 255.924 268.391 256.865 276.732 259.437C291.296 263.929 301.002 259.95 309.561 256.446C311.066 255.83 312.488 255.247 313.927 254.71C314.024 254.674 314.127 254.657 314.231 254.661C314.334 254.665 314.436 254.69 314.531 254.734C314.625 254.777 314.709 254.839 314.78 254.916C314.85 254.993 314.904 255.083 314.94 255.182C314.976 255.28 314.992 255.385 314.988 255.489C314.984 255.594 314.959 255.697 314.916 255.792C314.872 255.888 314.811 255.973 314.734 256.045C314.658 256.116 314.569 256.171 314.471 256.208C313.055 256.737 311.644 257.319 310.152 257.926C303.216 260.774 295.55 263.907 285.226 262.835Z" fill="#E3DBFF"/>
<path d="M316.719 254.819L310.194 253.09L312.586 260.153L316.719 254.819Z" fill="#FF5311"/>
<path d="M362.761 266.786C347.849 271.976 317.473 263.822 314.488 255.003C311.601 246.492 330.537 220.835 345.451 215.645C360.365 210.455 376.326 217.697 381.106 231.819C385.887 245.94 377.673 261.596 362.761 266.786Z" fill="url(#paint13_radial_2596_5507)"/>
</g>
<defs>
<linearGradient id="paint0_linear_2596_5507" x1="210.799" y1="234.2" x2="171.651" y2="225.102" gradientUnits="userSpaceOnUse">
<stop offset="0.3046" stop-color="#522CD5"/>
<stop offset="1" stop-color="#8A6FE8"/>
</linearGradient>
<linearGradient id="paint1_linear_2596_5507" x1="228.12" y1="192.97" x2="190.504" y2="233.126" gradientUnits="userSpaceOnUse">
<stop offset="0.1463" stop-color="#522CD5"/>
<stop offset="0.3651" stop-color="#5530D6"/>
<stop offset="0.9603" stop-color="#8A6FE8"/>
</linearGradient>
<linearGradient id="paint2_linear_2596_5507" x1="249.06" y1="236.409" x2="208.871" y2="236.409" gradientUnits="userSpaceOnUse">
<stop offset="0.3046" stop-color="#522CD5"/>
<stop offset="1" stop-color="#8A6FE8"/>
</linearGradient>
<linearGradient id="paint3_linear_2596_5507" x1="256.598" y1="192.322" x2="229.057" y2="239.97" gradientUnits="userSpaceOnUse">
<stop offset="0.1463" stop-color="#522CD5"/>
<stop offset="0.3651" stop-color="#5530D6"/>
<stop offset="0.9603" stop-color="#8A6FE8"/>
</linearGradient>
<radialGradient id="paint4_radial_2596_5507" cx="0" cy="0" r="1" gradientUnits="userSpaceOnUse" gradientTransform="translate(183.359 85.5262) rotate(-17.4276) scale(48.5406 48.5849)">
<stop offset="0.4744" stop-color="#A08BE8"/>
<stop offset="0.8618" stop-color="#8065E0"/>
</radialGradient>
<radialGradient id="paint5_radial_2596_5507" cx="0" cy="0" r="1" gradientUnits="userSpaceOnUse" gradientTransform="translate(240.367 106.78) rotate(-17.4276) scale(32.1256 32.1549)">
<stop offset="0.2022" stop-color="#E1DFDD"/>
<stop offset="0.7337" stop-color="white"/>
</radialGradient>
<radialGradient id="paint6_radial_2596_5507" cx="0" cy="0" r="1" gradientUnits="userSpaceOnUse" gradientTransform="translate(185.439 56.8851) rotate(-17.8248) scale(8.49963 8.50731)">
<stop stop-color="#8065E0"/>
<stop offset="0.8628" stop-color="#512BD4"/>
</radialGradient>
<linearGradient id="paint7_linear_2596_5507" x1="206.342" y1="136.683" x2="270.294" y2="136.683" gradientUnits="userSpaceOnUse">
<stop offset="0.0797" stop-color="#967FE6"/>
<stop offset="0.4268" stop-color="#8A6FE8"/>
</linearGradient>
<radialGradient id="paint8_radial_2596_5507" cx="0" cy="0" r="1" gradientUnits="userSpaceOnUse" gradientTransform="translate(211.182 112.551) scale(15.7235 15.741)">
<stop stop-color="#8065E0"/>
<stop offset="0.8628" stop-color="#512BD4"/>
</radialGradient>
<radialGradient id="paint9_radial_2596_5507" cx="0" cy="0" r="1" gradientUnits="userSpaceOnUse" gradientTransform="translate(265.618 139.021) rotate(160.449) scale(18.3799 17.169)">
<stop stop-color="#8065E0"/>
<stop offset="0.8628" stop-color="#512BD4"/>
</radialGradient>
<linearGradient id="paint10_linear_2596_5507" x1="203.916" y1="170.663" x2="251.868" y2="170.663" gradientUnits="userSpaceOnUse">
<stop offset="0.2827" stop-color="#522CD5"/>
<stop offset="0.5501" stop-color="#8A6FE8"/>
</linearGradient>
<linearGradient id="paint11_linear_2596_5507" x1="179.929" y1="46.2903" x2="189.98" y2="53.1888" gradientUnits="userSpaceOnUse">
<stop stop-color="#FF7951"/>
<stop offset="1" stop-color="#FF2078"/>
</linearGradient>
<linearGradient id="paint12_linear_2596_5507" x1="9397.8" y1="128540" x2="10513.3" y2="126640" gradientUnits="userSpaceOnUse">
<stop stop-color="#FF7951"/>
<stop offset="1" stop-color="#FF2078"/>
</linearGradient>
<radialGradient id="paint13_radial_2596_5507" cx="0" cy="0" r="1" gradientUnits="userSpaceOnUse" gradientTransform="translate(359.436 243.683) rotate(71.3012) scale(52.2153 51.8383)">
<stop offset="0.1" stop-color="#F79B7F"/>
<stop offset="0.75" stop-color="#FF5311"/>
</radialGradient>
<clipPath id="clip0_2596_5507">
<rect width="636" height="300" fill="white"/>
</clipPath>
</defs>
</svg>
